<?xml version="1.0" encoding="utf-8"?>
<!-- Generator: Adobe Illustrator 15.1.0, SVG Export Plug-In  -->
<!DOCTYPE svg PUBLIC "-//W3C//DTD SVG 1.1//EN" "http://www.w3.org/Graphics/SVG/1.1/DTD/svg11.dtd" [
	<!ENTITY ns_flows "http://ns.adobe.com/Flows/1.0/">
]>
<svg version="1.1"
	 xmlns="http://www.w3.org/2000/svg" xmlns:xlink="http://www.w3.org/1999/xlink" xmlns:a="http://ns.adobe.com/AdobeSVGViewerExtensions/3.0/"
	 x="0px" y="0px" width="314px" height="199px" viewBox="-6.36 -6.925 314 199"
	 overflow="visible" enable-background="new -6.36 -6.925 314 199" xml:space="preserve">
<defs>
</defs>
<g>
	<polygon fill="#C4A2BE" points="301.125,78.653 299.834,77.883 298.681,77.519 297.521,77.167 296.576,76.407 295.492,75.914 
		294.501,75.241 293.485,74.615 292.535,73.867 291.27,73.717 290.466,72.688 289.396,72.167 287.97,72.323 287.047,71.52 
		285.858,71.222 284.807,70.664 283.733,70.145 282.74,69.473 282.116,68.098 280.757,68.122 279.507,67.936 278.641,67.02 
		277.755,66.138 276.774,65.438 275.241,65.787 274.373,64.869 273.107,64.707 272.569,63.156 271.036,63.504 270.447,62.052 
		269.333,61.603 268.205,61.18 267.142,60.636 266.027,60.189 264.909,59.75 264.002,58.91 262.614,58.987 261.877,57.824 
		260.876,57.166 259.581,57.067 258.813,55.963 257.705,55.508 256.281,55.656 255.572,54.439 254.569,53.783 253.405,53.432 
		252.357,52.863 251.209,52.481 250.324,51.599 248.972,51.603 247.959,50.96 246.91,50.386 245.856,49.82 244.785,49.285 
		243.703,48.77 242.854,47.812 241.653,47.524 240.4,47.338 239.574,46.338 238.752,45.332 237.454,45.233 236.323,44.818 
		235.033,44.706 234.152,43.813 232.981,43.474 231.857,43.045 230.938,42.227 230.064,41.319 228.918,40.931 228.035,40.039 
		226.7,40.007 225.657,39.417 224.739,38.587 223.65,38.084 222.565,37.575 221.409,37.204 220.38,36.589 219.555,35.587 
		218.202,35.593 217.407,34.535 216.085,34.479 215.275,33.45 214.105,33.105 213.147,32.354 211.867,32.215 210.941,31.4 
		209.87,30.863 208.805,30.316 207.688,29.867 206.464,29.623 205.858,28.204 204.756,27.729 203.47,27.604 202.418,27.03 
		201.598,26.015 200.358,25.798 199.451,24.947 197.994,25.159 197.031,24.429 196.202,23.441 195.043,23.078 193.895,22.69 
		192.698,22.391 191.742,21.633 190.951,20.565 189.82,20.145 188.815,19.488 187.704,19.035 186.818,18.152 185.699,17.715 
		184.407,17.604 183.376,16.991 182.313,16.437 181.137,16.094 180.225,15.251 179.265,14.503 177.825,14.67 176.825,14 
		176.237,12.541 174.912,12.483 173.987,11.661 172.889,11.172 171.648,10.956 170.901,9.799 169.771,9.368 168.384,9.424 
		167.292,8.923 166.186,8.447 165.317,7.514 164.363,6.757 163.329,6.153 162.008,6.093 160.815,5.775 160.001,4.741 159.155,3.771 
		157.756,3.845 156.911,2.866 155.522,2.92 154.847,1.626 153.665,1.284 152.637,0.646 151.381,0.433 150.418,0 149.328,0.139 
		148.166,0.486 147.147,1.106 146.126,1.72 145.154,2.429 144.014,2.817 142.859,3.176 141.717,3.562 141.126,4.996 139.76,4.953 
		139.041,6.145 137.978,6.679 136.87,7.129 135.697,7.457 134.727,8.169 133.802,8.971 132.395,8.854 131.301,9.334 130.626,10.615 
		129.34,10.73 128.075,10.887 127.428,12.222 126.343,12.726 125.25,13.214 123.816,13.055 123.133,14.328 122.088,14.913 
		121.141,15.682 120.044,16.166 118.597,15.98 117.627,16.705 116.478,17.084 115.552,17.889 114.647,18.735 113.651,19.405 
		112.364,19.52 111.486,20.415 110.301,20.722 109.414,21.599 107.998,21.468 107.101,22.324 106.198,23.17 105.262,23.953 
		104.239,24.57 102.676,24.16 101.902,25.254 101.021,26.143 99.599,26.003 98.539,26.554 97.702,27.531 96.637,28.075 
		95.625,28.723 94.447,29.054 93.392,29.621 92.225,29.974 91.404,30.986 90.009,30.9 89.101,31.743 88.311,32.809 86.917,32.725 
		85.908,33.373 85.049,34.307 83.937,34.757 82.793,35.148 81.56,35.371 80.874,36.634 79.64,36.854 78.362,36.994 77.439,37.808 
		76.489,38.573 75.144,38.586 74.555,40.043 73.163,39.968 72.235,40.777 70.952,40.907 70.063,41.789 69.008,42.352 68.084,43.164 
		67.056,43.778 65.727,43.82 64.733,44.5 63.533,44.788 62.902,46.161 61.659,46.37 60.621,46.971 59.696,47.788 58.612,48.298 
		57.086,47.968 56.342,49.125 55.178,49.482 54.294,50.374 53.012,50.505 51.867,50.902 51.077,51.974 50.146,52.781 48.621,52.454 
		47.769,53.393 46.781,54.077 45.453,54.114 44.557,54.977 43.604,55.736 42.404,56.029 41.286,56.48 40.409,57.385 39.434,58.101 
		38.479,58.854 37.323,59.22 35.904,59.087 34.852,59.653 34.259,61.097 33.053,61.374 31.841,61.644 30.932,62.496 29.626,62.589 
		28.803,63.596 27.437,63.569 26.851,65.03 25.508,65.05 24.782,66.248 23.225,65.867 22.143,66.386 21.417,67.583 20.514,68.443 
		19.101,68.334 17.914,68.657 16.834,69.184 15.885,69.958 14.674,70.238 13.605,70.779 12.915,72.037 11.684,72.269 10.429,72.466 
		9.822,73.895 8.723,74.385 7.334,74.331 6.662,75.639 5.503,76.021 4.36,76.424 3.472,77.327 2.242,77.581 1.085,77.982 0,78.58 
		1.204,78.483 2.378,78.66 3.554,78.19 4.731,79.038 5.908,78.142 7.084,78.867 8.261,78.808 9.439,79.162 10.616,78.775 
		11.788,78.639 12.961,78.511 14.14,78.746 15.316,78.126 16.493,79.134 17.673,78.162 18.852,78.196 20.031,79.117 21.212,78.692 
		22.392,79.097 23.573,78.897 24.758,78.059 25.998,78.513 26.327,79.735 26.6,80.909 25.928,82.182 26.947,83.274 26.064,84.569 
		27.214,85.646 27.235,86.844 27.076,88.061 26.777,89.292 27.315,90.433 27.744,91.586 27.427,92.82 27.258,94.037 27.708,95.188 
		27.701,96.389 28.258,97.53 28.214,98.734 27.96,99.962 28.179,101.141 28.144,102.348 28.125,103.553 28.813,104.681 
		28.357,105.931 28.826,107.082 29.244,108.238 28.793,109.487 29.075,110.657 30.03,111.754 30.01,112.958 29.428,114.221 
		29.994,115.362 30.14,116.548 29.766,117.792 30.561,118.91 29.811,120.193 30.058,121.368 30.414,122.531 31.337,123.634 
		31.206,124.849 31.042,126.068 31.038,127.271 31.548,128.418 31.295,129.65 31.029,130.881 31.192,132.067 32.143,133.167 
		31.54,134.434 31.741,135.614 31.703,136.821 31.962,137.996 32.324,139.16 32.396,140.354 33.167,141.471 32.715,142.719 
		33.023,143.885 33.076,145.078 32.926,146.292 33.664,147.413 33.863,148.592 33.167,149.871 33.867,151 34.02,152.187 
		34.06,153.385 33.526,154.644 34.725,155.716 34.098,156.987 34.521,158.145 34.996,159.299 34.391,160.569 35.292,161.674 
		34.826,162.928 34.753,164.141 35.429,165.274 35.887,166.428 35.119,167.716 35.813,168.849 36.256,170.005 35.938,171.247 
		36.254,172.415 36.512,173.592 36.67,174.78 36.263,176.028 36.854,177.172 36.793,178.385 36.593,179.615 36.41,180.843 
		37.361,181.949 37.714,183.12 37.173,184.39 37.131,185.911 38.635,185.333 39.835,185.769 41.037,186.133 42.238,185.5 
		43.439,185.534 44.64,186.163 45.84,185.872 47.04,185.204 48.24,185.606 49.44,185.952 50.641,185.269 51.84,185.231 
		53.04,185.215 54.239,185.223 55.438,185.714 56.638,185.196 57.837,186.161 59.037,185.679 60.236,185.836 61.435,185.786 
		62.635,185.214 63.834,185.246 65.034,185.622 66.233,185.082 67.434,185.411 68.633,185.57 69.833,185.03 71.034,185.255 
		72.234,185.559 73.436,185.582 74.637,185.954 75.838,186.142 77.04,185.412 78.241,185.442 79.442,185.274 80.643,186.108 
		81.843,185.533 83.044,186.116 84.242,185.937 85.44,185.952 86.638,185.599 87.835,186.031 89.033,186.116 90.229,184.998 
		91.426,185.449 92.622,185.3 93.818,185.406 95.014,185.555 96.21,185.392 97.406,185.761 98.602,184.99 99.797,185.282 
		100.993,185.277 102.188,185.267 103.384,185.793 104.58,185.666 105.776,186.055 106.972,185.771 108.168,185.658 
		109.365,185.321 110.561,186.121 111.758,185.957 112.956,185.56 114.153,185.119 115.351,185.783 116.55,185.177 117.749,185.438 
		118.949,185.881 120.149,186.136 121.35,185.112 122.551,185.695 123.753,185.193 124.955,186.069 126.157,185.802 
		127.359,185.745 128.561,185.356 129.761,185.32 130.962,185.345 132.162,186.049 133.361,185.353 134.561,185.293 
		135.759,185.931 136.958,185.035 138.157,185.665 139.355,185.934 140.554,185.409 141.752,185.722 142.951,186.066 
		144.149,185.99 145.348,185.948 146.547,185.44 147.746,185.964 148.946,186.173 150.146,185.754 151.346,185.106 152.547,185.455 
		153.749,185.725 154.951,185.393 156.154,185.414 157.357,185.847 158.561,185.096 159.763,185.52 160.965,185.979 
		162.166,185.416 163.367,185.271 164.568,185.899 165.769,186.056 166.969,185.971 168.169,185.615 169.37,185.386 170.57,186.025 
		171.771,185.564 172.972,185.2 174.174,185.537 175.375,185.869 176.578,186.138 177.782,185.897 178.986,185.462 180.189,185.845 
		181.393,185.445 182.596,185.33 183.798,185.061 185,185.581 186.201,185.629 187.403,185.659 188.604,185.434 189.806,185.585 
		191.008,185.399 192.211,185.833 193.415,185.569 194.619,185.003 195.824,185.793 197.027,185.692 198.23,185.76 199.433,185.628 
		200.635,186.063 201.838,185.182 203.041,186.015 204.244,185.151 205.448,185.265 206.652,185.431 207.857,185.113 
		209.061,185.329 210.264,185.321 211.467,185.762 212.67,185.39 213.875,185.999 215.08,185.869 216.284,185.792 217.486,186.086 
		218.688,185.811 219.888,185.933 221.088,185.507 222.288,185.945 223.488,185.892 224.689,185.126 225.892,185.233 
		227.096,185.119 228.302,185.997 229.507,186.171 230.71,185.614 231.912,185.444 233.115,185.027 234.319,185.466 235.524,185.9 
		236.73,185.118 237.936,185.099 239.14,185.938 240.345,185.486 241.551,186.109 242.758,185.757 243.963,185.233 245.169,185.783 
		246.377,185.078 247.583,185.574 248.791,185.523 249.994,185.341 251.202,185.364 252.407,186.148 253.612,185.186 
		254.821,185.76 256.028,185.193 257.237,185.682 258.448,185.413 259.656,185.661 260.867,185.68 262.08,186 263.063,185.314 
		262.913,184.333 263.766,183.221 263.852,182.028 264.168,180.861 264.236,179.668 263.505,178.39 264.715,177.319 
		264.509,176.098 264.473,174.895 265.128,173.766 264.374,172.487 264.846,171.338 265.337,170.192 264.687,168.923 
		265.215,167.78 265.165,166.575 265.855,165.448 265.492,164.208 265.298,162.986 265.476,161.801 266.385,160.696 
		266.093,159.463 266.277,158.282 266.34,157.087 266.332,155.886 266.176,154.669 267.062,153.564 267.195,152.378 
		266.428,151.095 266.732,149.927 266.978,148.752 267.228,147.577 267.922,146.447 267.721,145.223 268.029,144.053 
		268.132,142.863 267.577,141.603 268.3,140.478 267.75,139.218 267.982,138.042 268.353,136.879 268.089,135.649 268.157,134.452 
		268.3,133.264 268.776,132.113 269.703,131.01 269.49,129.786 269.144,128.546 270.004,127.436 269.094,126.136 269.543,124.981 
		269.558,123.782 269.588,122.585 269.825,121.412 270.731,120.309 270.922,119.131 270.16,117.851 270.71,116.71 270.229,115.458 
		270.628,114.298 270.851,113.117 271.34,111.966 271.253,110.754 271.144,109.542 272.065,108.438 271.224,107.147 
		271.626,105.986 271.55,104.773 272.185,103.636 272.403,102.458 272.541,101.268 272.606,100.071 272.692,98.851 273.64,97.725 
		273.64,96.52 273.396,95.311 273.643,94.144 273.804,92.96 272.739,91.649 273.553,90.531 273.605,89.333 273.771,88.147 
		273.634,86.925 274.154,85.775 273.576,84.506 273.679,83.309 273.86,82.121 274.67,80.998 273.965,79.71 274.949,78.863 
		275.871,78.533 277.056,78.539 278.241,78.068 279.428,78.239 280.615,78.746 281.8,78.49 282.987,78.257 284.175,78.329 
		285.361,78.048 286.542,78.113 287.726,78.124 288.915,78.982 290.101,79.013 291.287,78.908 292.478,78.465 293.666,79.087 
		294.855,78.567 296.046,78.559 297.235,78.841 298.427,77.992 299.636,78.077 	"/>
</g>
<text transform="matrix(1.2856 0 0 1 71.8672 133.8071)"><tspan x="0" y="0" fill="#FFFFFF" font-family="'Penelope-Anne'" font-size="72.4009">H</tspan><tspan x="26.715" y="0" fill="#FFFFFF" font-family="'Penelope-Anne'" font-size="26.0643"> </tspan><tspan x="34.534" y="0" fill="#FFFFFF" font-family="'Penelope-Anne'" font-size="72.4009">O</tspan><tspan x="60.597" y="0" fill="#FFFFFF" font-family="'Penelope-Anne'" font-size="26.0643"> </tspan><tspan x="68.416" y="0" fill="#FFFFFF" font-family="'Penelope-Anne'" font-size="72.4009">M</tspan><tspan x="95.567" y="0" fill="#FFFFFF" font-family="'Penelope-Anne'" font-size="26.0643"> </tspan><tspan x="103.386" y="0" fill="#FFFFFF" font-family="'Penelope-Anne'" font-size="72.4009">E</tspan></text>
</svg>
