<?xml version="1.0" encoding="utf-8"?>
<!-- Generator: Adobe Illustrator 15.1.0, SVG Export Plug-In  -->
<!DOCTYPE svg PUBLIC "-//W3C//DTD SVG 1.1//EN" "http://www.w3.org/Graphics/SVG/1.1/DTD/svg11.dtd" [
	<!ENTITY ns_flows "http://ns.adobe.com/Flows/1.0/">
]>
<svg version="1.1"
	 xmlns="http://www.w3.org/2000/svg" xmlns:xlink="http://www.w3.org/1999/xlink" xmlns:a="http://ns.adobe.com/AdobeSVGViewerExtensions/3.0/"
	 x="0px" y="0px" width="314px" height="199px" viewBox="-5.424 -5.906 314 199"
	 overflow="visible" enable-background="new -5.424 -5.906 314 199" xml:space="preserve">
<defs>
</defs>
<g>
	<polygon fill="#FDA88B" points="301.344,23.377 299.927,23 298.538,22.687 297.151,22.459 295.795,22.097 294.199,22.484 
		292.909,21.8 291.862,20.645 290.688,19.88 289.29,19.496 288.032,18.828 287.205,17.597 286.002,16.848 285.287,15.588 
		283.895,14.954 282.939,13.896 282.332,12.592 281.393,11.502 281.123,10.051 280.459,8.812 279.663,7.598 278.934,6.318 
		279.338,4.763 279.001,3.397 279.158,1.976 278.435,1.153 277.177,0.322 275.735,0.4 274.294,0.093 272.853,1.125 271.411,0.136 
		269.97,1.038 268.528,0.646 267.087,0.548 265.646,0.075 264.204,0.306 262.762,0.303 261.32,0.436 259.879,0.601 258.437,0.653 
		256.995,0.486 255.553,0.241 254.11,0.618 252.667,0.517 251.224,0.649 249.78,0.302 248.336,0.524 246.893,0.779 245.449,0.211 
		244.006,0.708 242.563,1.003 241.12,0.744 239.678,1.003 238.235,0.396 236.793,0.027 235.351,1 233.909,0.927 232.467,0.883 
		231.025,0.721 229.583,1.011 228.141,0.244 226.699,0.394 225.257,0.049 223.814,0.339 222.372,0.359 220.929,0.808 219.486,1.097 
		218.043,1.004 216.599,0.854 215.155,1.17 213.711,0.811 212.268,0.599 210.824,1.136 209.381,0.189 207.938,0.823 206.496,0.168 
		205.053,0.415 203.615,0.716 202.177,0.426 200.738,0.812 199.299,1.16 197.859,0.115 196.418,0.06 194.978,0.97 193.535,0.123 
		192.092,0.447 190.649,0.886 189.205,0.879 187.761,0.987 186.317,0.708 184.875,1.084 183.433,0.862 181.991,0.198 180.55,0.223 
		179.109,0.961 177.669,1.139 176.229,0.521 174.79,0.733 173.351,0.65 171.911,0.667 170.472,0.267 169.033,0.14 167.594,0.07 
		166.154,0.289 164.714,0.675 163.274,0.372 161.834,0.575 160.394,0.461 158.953,1.097 157.511,0.665 156.068,1.117 154.625,0.068 
		153.181,0.362 151.737,1.127 150.291,0.396 148.846,1.021 147.402,0.465 145.959,1.119 144.516,0.215 143.074,1.071 141.632,0.868 
		140.19,0.472 138.749,1.039 137.308,0.016 135.866,0.008 134.425,0.114 132.982,0.657 131.54,0.514 130.098,0.739 128.654,0.488 
		127.21,0.178 125.765,0.987 124.319,0.184 122.873,0.355 121.428,0.54 119.983,0.381 118.54,0.449 117.097,0.396 115.653,1.024 
		114.21,0.196 112.768,0.207 111.324,0.947 109.88,1.006 108.436,0.683 106.99,0 105.543,0.69 104.097,0.765 102.652,0.724 
		101.207,0.528 99.763,0.096 98.318,0.193 96.875,0.674 95.43,0.279 93.984,0.782 92.538,0.85 91.091,0.832 89.645,0.665 88.2,0.96 
		86.754,0.576 85.31,0.843 83.864,0.955 82.418,1.024 80.972,0.558 79.524,1.132 78.079,0.78 76.633,0.197 75.187,0.807 
		73.741,0.822 72.3,0.938 70.859,0.663 69.418,0.349 67.974,0.471 66.528,1.014 65.08,0.143 63.634,0.946 62.189,0.467 
		60.746,0.188 59.303,0.154 57.857,0.556 56.41,0.999 54.962,0.958 53.515,0.068 52.069,0.63 50.623,0.481 49.174,0.47 
		47.725,0.625 46.278,0.22 44.83,0.738 43.38,0.491 41.932,0.229 40.481,0.988 39.033,0.183 37.582,0.248 36.136,0.477 
		34.689,0.897 33.238,0.158 31.789,0.762 30.338,0.642 28.886,0.699 27.436,0.841 25.981,0.552 24.525,1.156 23.192,0.958 
		23.478,2.096 22.758,3.507 22.631,4.973 22.284,6.4 21.375,7.639 20.9,8.997 20.549,10.43 20.331,11.989 18.905,12.827 
		18.603,14.417 17.183,15.149 16.1,16.112 15.312,17.394 14.215,18.369 13.225,19.525 11.814,20.067 10.504,20.738 9.359,21.807 
		7.706,21.622 6.479,22.634 4.964,22.681 3.48,22.687 2.011,22.571 0.908,23.167 0.603,24.482 0.962,25.911 0.431,27.34 
		0.066,28.771 0.14,30.201 0.431,31.632 0.225,33.064 1.148,34.497 0.43,35.93 0.195,37.365 0.141,38.798 0.958,40.231 
		0.842,41.663 0.725,43.095 0.887,44.526 0.355,45.957 0.334,47.387 0.546,48.818 0.229,50.248 1.088,51.678 0.277,53.109 
		0.244,54.54 0,55.971 0.828,57.402 0.197,58.834 0.438,60.268 0.484,61.702 0.931,63.137 0.17,64.571 0.075,66.005 1.012,67.438 
		1.073,68.87 0.128,70.302 0.803,71.734 0.953,73.166 0.05,74.598 0.167,76.03 0.903,77.463 0.675,78.896 0.99,80.331 0.557,81.766 
		0.196,83.201 0.263,84.635 0.534,86.068 0.72,87.501 0.605,88.935 0.394,90.368 1.159,91.801 0.686,93.235 0.899,94.67 
		0.733,96.106 0.935,97.541 0.702,98.975 0.428,100.409 0.272,101.842 1.072,103.277 0.082,104.711 0.718,106.147 0.98,107.583 
		0.006,109.018 0.594,110.452 0.477,111.886 1.125,113.322 1.14,114.75 1.045,116.18 0.589,117.611 0.119,119.043 0.577,120.478 
		0.397,121.916 0.172,123.35 0.027,124.784 0.02,126.216 0.874,127.649 0.297,129.083 0.312,130.518 0.342,131.956 0.713,133.391 
		0.057,134.826 1.059,136.261 0.53,137.699 0.541,139.136 0.36,140.572 0.424,142.008 0.856,143.448 0.959,144.884 0.153,146.323 
		0.319,147.761 0.058,149.2 0.888,150.635 0.45,152.071 0.083,153.51 1.033,154.948 0.749,156.388 0.86,157.829 0.582,159.268 
		0.388,160.71 0.756,162.156 0.393,163.661 2.016,163.37 3.386,163.958 4.854,163.803 6.148,164.518 7.438,165.099 8.972,165.034 
		10.235,165.712 11.176,166.952 12.887,166.854 13.609,168.309 15.258,168.514 16.208,169.618 17.271,170.591 18.299,171.614 
		18.532,173.231 19.659,174.172 20.256,175.467 21.193,176.59 21.598,177.973 22.537,179.167 22.468,180.684 22.79,182.073 
		23.007,183.482 22.709,184.927 23.521,186.327 23.087,186.312 24.511,186.037 25.953,186.377 27.394,186.91 28.835,186.047 
		30.277,187.01 31.718,187.188 33.159,186.879 34.601,186.371 36.042,186.486 37.483,186.65 38.925,186.788 40.367,186.591 
		41.809,186.692 43.25,186.053 44.693,186.315 46.135,187.128 47.578,187.02 49.021,186.746 50.464,187.013 51.907,186.012 
		53.352,187.098 54.795,186.298 56.239,187.143 57.682,186.217 59.125,186.003 60.568,186.463 62.01,186.93 63.452,186.697 
		64.895,186.136 66.337,186.897 67.779,187.594 69.221,187.594 70.663,187.042 72.105,187.09 73.547,186.594 74.989,186.922 
		76.431,187.14 77.874,187.05 79.316,186.67 80.759,186.605 82.202,186.202 83.646,186.229 85.089,186.754 86.533,186.411 
		87.977,186.675 89.421,187.036 90.864,186.215 92.307,186.243 93.75,186.801 95.193,186.017 96.636,186.446 98.073,186.086 
		99.512,187.054 100.951,186.176 102.39,186.628 103.83,187.138 105.271,186.541 106.711,187.156 108.153,186.033 109.596,187.181 
		111.039,186.181 112.483,187.165 113.928,186.607 115.371,187.036 116.814,186.148 118.256,186.698 119.698,186.643 
		121.139,186.95 122.579,186.09 124.019,187.084 125.459,186.986 126.899,186.152 128.338,186.458 129.778,187.122 131.217,186.148 
		132.656,186.129 134.095,186.219 135.535,186.508 136.974,186.985 138.414,186.75 139.854,186.124 141.295,186.091 
		142.736,186.475 144.178,186.641 145.62,186.766 147.063,186.401 148.507,186.933 149.951,186.561 151.397,187.012 
		152.842,186.539 154.286,186.925 155.729,186.731 157.172,186.484 158.614,186.091 160.056,186.629 161.498,186.48 162.94,186.811 
		164.381,186.123 165.823,186.367 167.265,186.794 168.706,186.951 170.148,187.097 171.591,186.557 173.035,186.09 
		174.479,186.523 175.924,187.005 177.37,187.09 178.816,186.628 180.261,186.448 181.705,187.182 183.149,187.146 184.592,186.257 
		186.035,186.384 187.479,186.216 188.921,187.068 190.364,186.141 191.809,186.331 193.253,186.291 194.699,186.082 
		196.145,186.749 197.592,187.042 199.037,186.333 200.481,187.122 201.926,187.112 203.37,187.021 204.815,186.322 206.26,186.891 
		207.705,186.117 209.151,186.373 210.598,186.75 212.044,186.494 213.489,186.382 214.935,186.852 216.38,187.134 217.825,186.322 
		219.271,186.252 220.717,186.376 222.164,186.83 223.61,186.097 225.056,186.947 226.501,186.186 227.948,186.015 229.388,186.241 
		230.829,187.143 232.271,186.089 233.715,186.503 235.16,186.198 236.609,186.022 238.055,187.162 239.499,186.628 
		240.943,186.727 242.387,186.308 243.832,186.967 245.279,186.717 246.728,186.957 248.174,187.042 249.62,186.674 
		251.066,186.148 252.515,186.839 253.964,186.505 255.411,186.702 256.859,186.115 258.309,187.008 259.757,186.229 
		261.207,186.663 262.655,186.305 264.106,187.035 265.552,186.433 266.999,186.712 268.45,186.001 269.898,186.119 271.35,186.687 
		272.802,186.784 274.252,186.247 275.706,186.029 277.162,186.937 278.635,186.862 278.745,186.327 279.13,184.927 
		279.271,183.536 279.581,182.172 278.8,180.536 279.648,179.274 279.856,177.815 280.809,176.66 281.187,175.241 282.642,174.456 
		283.289,173.207 284.027,171.999 284.73,170.721 286.018,170.002 287.088,169.09 288.088,168.077 288.968,166.823 290.641,166.853 
		291.5,165.403 292.815,164.782 294.255,164.51 295.753,164.553 297.045,163.792 298.485,163.708 299.878,163.043 301.344,163.906 
		300.997,163.569 301.072,162.171 301.548,160.743 301.858,159.313 301.724,157.883 301.21,156.453 301.306,155.021 
		301.058,153.589 302.05,152.157 301.789,150.723 302.073,149.289 301.514,147.855 301.209,146.422 301.592,144.99 302.051,143.558 
		301.522,142.127 301.84,140.696 301.641,139.266 301.279,137.835 301.229,136.405 301.738,134.975 301.255,133.544 
		301.343,132.114 301.387,130.682 301.741,129.25 301.421,127.819 302.019,126.385 301.134,124.952 302.029,123.517 
		301.736,122.083 301.734,120.648 301.199,119.215 301.846,117.783 301.865,116.351 302.108,114.918 301.538,113.487 
		301.399,112.055 301.021,110.623 301.779,109.19 301.026,107.756 301.686,106.323 301.587,104.887 301.472,103.453 
		301.428,102.018 301.007,100.584 301.946,99.152 301.888,97.718 301.604,96.286 301.984,94.852 301.507,93.418 301.913,91.983 
		301.048,90.547 301.324,89.112 301.792,87.678 301.621,86.244 301.108,84.811 301.46,83.376 301.281,81.942 301.913,80.506 
		301.309,79.07 301.864,77.635 301.59,76.201 301.639,74.767 302.021,73.332 301.903,71.902 301.015,70.472 302.124,69.042 
		301.245,67.609 301.974,66.175 301.435,64.738 301.887,63.303 301.586,61.87 301.053,60.437 301.01,59.004 301.074,57.571 
		301.939,56.135 301.467,54.697 301.061,53.262 302.049,51.827 301.985,50.392 300.989,48.955 301.971,47.518 301.557,46.082 
		301.271,44.645 301.103,43.206 302.076,41.769 301.84,40.33 301.691,38.892 301.916,37.453 302.042,36.018 301.223,34.583 
		301.155,33.143 301.725,31.705 301.018,30.266 301.152,28.824 301.734,27.385 301.821,25.943 301.526,24.498 301.075,23.08 	"/>
</g>
<text transform="matrix(1 0 0 1 121.4824 63.6797)" fill="#FFFFFF" font-family="'AlwaysInMyHeart'" font-size="43.4588">the</text>
<text transform="matrix(1.4405 0 0 1 58.7446 145.7896)"><tspan x="0" y="0" fill="#FFFFFF" font-family="'SteelTongs'" font-size="78.9452">S</tspan><tspan x="23.051" y="0" fill="#FFFFFF" font-family="'SteelTongs'" font-size="26.1064"> </tspan><tspan x="26.262" y="0" fill="#FFFFFF" font-family="'SteelTongs'" font-size="78.9452">T</tspan><tspan x="45.681" y="0" fill="#FFFFFF" font-family="'SteelTongs'" font-size="26.1064"> </tspan><tspan x="48.892" y="0" fill="#FFFFFF" font-family="'SteelTongs'" font-size="78.9452">O</tspan><tspan x="72.89" y="0" fill="#FFFFFF" font-family="'SteelTongs'" font-size="26.1064"> </tspan><tspan x="76.101" y="0" fill="#FFFFFF" font-family="'SteelTongs'" font-size="78.9452">R</tspan><tspan x="100.179" y="0" fill="#FFFFFF" font-family="'SteelTongs'" font-size="26.1064"> </tspan><tspan x="103.39" y="0" fill="#FFFFFF" font-family="'SteelTongs'" font-size="78.9452">Y</tspan></text>
<path fill="#FFFFFF" d="M116.669,54.142c-11.363,0.203-22.726,0.371-34.081,0.467c0-0.17-0.048-0.351-0.169-0.518
	c-0.849-1.148-1.682-2.309-2.486-3.508c-0.871-1.286-1.612-2.759-2.573-3.954c-0.513-0.629-1.302,0.153-0.994,0.897
	c0.571,1.4,1.506,2.629,2.317,3.83c0.758,1.113,1.554,2.196,2.356,3.27c-1.497,0.012-2.993,0.028-4.49,0.043
	c-1.443-2.681-2.927-5.372-4.596-7.898c-0.457-0.694-1.453-0.093-1.104,0.646c1.223,2.54,2.911,4.865,4.451,7.26
	c-1.377,0.006-2.76,0.006-4.139,0.012c-1.715-2.559-3.493-5.076-5.233-7.614c-0.558-0.819-1.898-0.054-1.342,0.784
	c1.584,2.383,3.392,4.611,5.209,6.83c-2.593,0.017-5.178,0.028-7.768,0.028c-1.478,0-1.478,2.722,0,2.722
	c2.545,0,5.087-0.017,7.628-0.027c-1.767,2.161-3.525,4.344-5.07,6.664c-0.556,0.851,0.784,1.609,1.342,0.791
	c1.7-2.496,3.445-4.955,5.125-7.455c1.389-0.01,2.775-0.01,4.158-0.016c-1.508,2.341-3.166,4.635-4.361,7.128
	c-0.349,0.736,0.646,1.337,1.104,0.644c1.644-2.485,3.113-5.143,4.53-7.785c1.509-0.008,3.015-0.027,4.532-0.033
	c-0.797,1.057-1.583,2.13-2.332,3.231c-0.812,1.204-1.746,2.431-2.317,3.829c-0.309,0.752,0.481,1.537,0.994,0.898
	c0.96-1.198,1.702-2.666,2.573-3.963c0.804-1.188,1.638-2.352,2.486-3.498c0.117-0.162,0.169-0.344,0.169-0.519
	c11.168-0.094,22.34-0.251,33.516-0.456c1.293-0.023,2.585-0.034,3.878-0.055c0-0.918,0-1.83,0-2.723
	C118.878,54.113,117.774,54.123,116.669,54.142z"/>
<path fill="#FFFFFF" d="M241.322,54.734c-0.202-0.467-0.744-0.621-1.177-0.771c-0.94-0.32-1.836-1.003-2.73-1.436
	c-0.994-0.485-2.055-0.788-3.065-1.222c-0.727-0.317-1.745-0.748-2.328-1.291c-0.467-0.428-1.076-0.012-1.073,0.479
	c-0.003,0.008-0.005,0.012-0.005,0.017c-0.079,0.493-0.019,0.893,0.104,1.38c0.162,0.662,0.243,1.32,0.29,2.003
	c-0.125-0.058-0.257-0.091-0.413-0.091c-17.166,0-34.322,0.016-51.477,0.293c0,0.893,0,1.805,0,2.723
	c17.158-0.272,34.316-0.293,51.477-0.293c0.101,0,0.189-0.014,0.283-0.04c-0.142,0.79-0.307,1.583-0.347,2.382
	c-0.019,0.297,0.264,0.586,0.569,0.572c1.624-0.094,3.309-1.145,4.786-1.754c0.823-0.336,1.627-0.717,2.46-1.062
	c0.797-0.326,1.634-0.479,2.384-0.901C241.438,55.507,241.478,55.097,241.322,54.734z"/>
</svg>
